<svg xmlns="http://www.w3.org/2000/svg" id="Calque_1" data-name="Calque 1" viewBox="0 0 264.97 55.1"><defs><style>.cls-1{fill:#fff;}</style></defs><g id="EB"><path class="cls-1" d="M264,30.42a8.49,8.49,0,0,0-2.48-2.85,10.8,10.8,0,0,0-2.95-1.45,5.28,5.28,0,0,0,.83-.4,7.21,7.21,0,0,0,2.86-2.83,8.32,8.32,0,0,0,1-3.94A8.28,8.28,0,0,0,261,12.71c-1.54-1.48-3.75-2.21-6.63-2.21H241.68a2,2,0,0,0-2,2v30a2,2,0,0,0,2,2h12.73a15.24,15.24,0,0,0,3.81-.48,9.83,9.83,0,0,0,3.4-1.6,8,8,0,0,0,2.45-3,10.54,10.54,0,0,0,.93-4.66A9,9,0,0,0,264,30.42ZM243.91,14.34h9.87a5.4,5.4,0,0,1,3.86,1.33A5.08,5.08,0,0,1,259,19.49a5,5,0,0,1-5.2,5.39h-9.91Zm15,24.92a7.2,7.2,0,0,1-4.62,1.46h-10.4V28.81H254.1a10.13,10.13,0,0,1,3.18.51,5.26,5.26,0,0,1,2.5,1.78,6,6,0,0,1,1,3.64A5.48,5.48,0,0,1,259,39.26Z" transform="translate(-0.04)"/><path class="cls-1" d="M231.23,14.19h-16a1.84,1.84,0,1,1-.28-3.67h16.28a1.84,1.84,0,0,1,.27,3.67Z" transform="translate(-0.04)"/><path class="cls-1" d="M231.23,28.85h-16a1.83,1.83,0,1,1,0-3.66h16a1.83,1.83,0,1,1,0,3.66Z" transform="translate(-0.04)"/><path class="cls-1" d="M231.23,44.44h-16a1.84,1.84,0,1,1-.28-3.67h16.28a1.84,1.84,0,0,1,.27,3.67A1.22,1.22,0,0,1,231.23,44.44Z" transform="translate(-0.04)"/></g><g id="SNOW"><path id="Tracé_1489" data-name="Tracé 1489" class="cls-1" d="M25.56,6.16a3.08,3.08,0,0,0-3.08,3.08v4.6l-5.77-2.73A2.05,2.05,0,0,0,15,14.82l7.54,3.57V22l-11-6.36A3.1,3.1,0,1,0,8.42,21h0l11.33,6.5-3.31,1.92L9.32,24.55A2.07,2.07,0,0,0,7,27.94H7l5.5,3.76L8.38,34.07a3.08,3.08,0,0,0,3,5.37h0l4-2.31L16,43.48a2,2,0,0,0,2,1.88h.17A2.06,2.06,0,0,0,20,43.15h0l-.67-8.31L22.49,33V45.77a3.08,3.08,0,0,0,6.15.35,2,2,0,0,0,0-.35V32.63L32,34.55l-.66,8.59a2.06,2.06,0,0,0,1.89,2.2h.16a2,2,0,0,0,2-1.89l.51-6.64L40,39.19a3.08,3.08,0,0,0,3.08-5.34l-4-2.3,5.26-3.63A2.06,2.06,0,1,0,42,24.54h0l-6.86,4.74L32,27.49l11-6.37a3.08,3.08,0,0,0-3-5.33L28.7,22.36V18.53l7.77-3.72a2.05,2.05,0,0,0-1.74-3.72h0l-6,2.87V9.23a3.06,3.06,0,0,0-3.05-3.07h0m0-6.16a9.23,9.23,0,0,1,8.17,5A8.19,8.19,0,0,1,43,9.38a9.23,9.23,0,0,1,7.8,10.47h0a9.46,9.46,0,0,1-.21,1.06c-.1.34-.21.68-.34,1a8.21,8.21,0,0,1-.76,9.77,9.24,9.24,0,0,1-7.83,14.13h-.37a8.27,8.27,0,0,1-7.83,5.75h-.54a9.23,9.23,0,0,1-13,1.57l0,0h0a9.93,9.93,0,0,1-1.52-1.52H18A8.26,8.26,0,0,1,10.25,46H10A9.24,9.24,0,0,1,2.2,31.82a8.21,8.21,0,0,1-.78-10.11c-.13-.33-.24-.66-.34-1a9.21,9.21,0,0,1,.92-7A9.31,9.31,0,0,1,8.57,9.13a8.25,8.25,0,0,1,7.26-4.38,8.37,8.37,0,0,1,1.58.15A9.27,9.27,0,0,1,25.56,0Z" transform="translate(-0.04)"/><path class="cls-1" d="M75.14,45a17.2,17.2,0,0,1-6.31-1.07,16.39,16.39,0,0,1-5.25-3.35,2.1,2.1,0,0,1-.56-.73,2,2,0,0,1,.34-2.3,1.78,1.78,0,0,1,1.38-.61,1.75,1.75,0,0,1,1.22.53,13.64,13.64,0,0,0,4.1,2.82,12.27,12.27,0,0,0,5,1,10,10,0,0,0,3.82-.71,6.63,6.63,0,0,0,2.72-1.89,4.27,4.27,0,0,0,1-2.82,4.73,4.73,0,0,0-1.07-3.29,8.38,8.38,0,0,0-3-2.09A30.19,30.19,0,0,0,74.08,29,29.15,29.15,0,0,1,70,27.74a12.11,12.11,0,0,1-3.26-1.9,7.64,7.64,0,0,1-2.14-2.77,9,9,0,0,1-.75-3.86,8.16,8.16,0,0,1,1.46-4.8,9.66,9.66,0,0,1,4.06-3.23,14.53,14.53,0,0,1,6-1.17A16.6,16.6,0,0,1,81,11a11,11,0,0,1,4.25,2.68,2.68,2.68,0,0,1,1,1.84,1.82,1.82,0,0,1-.61,1.29,1.86,1.86,0,0,1-1.38.61,1.52,1.52,0,0,1-1-.34,8.74,8.74,0,0,0-2.12-1.66,13.63,13.63,0,0,0-2.81-1.19,10.47,10.47,0,0,0-3-.44,11,11,0,0,0-3.94.66,6.17,6.17,0,0,0-2.65,1.82,4.31,4.31,0,0,0-.94,2.82,4.3,4.3,0,0,0,1.07,3,7.72,7.72,0,0,0,2.86,2,29.77,29.77,0,0,0,4,1.33,41.93,41.93,0,0,1,4.39,1.34,13.6,13.6,0,0,1,3.48,1.87,7.6,7.6,0,0,1,2.25,2.84,10.15,10.15,0,0,1,.81,4.25,8.11,8.11,0,0,1-1.51,4.76A10.27,10.27,0,0,1,81,43.8,13.59,13.59,0,0,1,75.14,45Z" transform="translate(-0.04)"/><path class="cls-1" d="M120.08,12.34V42.46A2,2,0,0,1,119.5,44a2,2,0,0,1-1.46.55,2.12,2.12,0,0,1-.83-.17,1.38,1.38,0,0,1-.68-.46L96.71,17.66V42.71A1.73,1.73,0,0,1,96.2,44a1.81,1.81,0,0,1-1.34.51A1.69,1.69,0,0,1,93.55,44a1.74,1.74,0,0,1-.48-1.28V12.49A1.86,1.86,0,0,1,93.65,11,2,2,0,0,1,95,10.5a2.52,2.52,0,0,1,.9.17,1.34,1.34,0,0,1,.7.56l19.87,26.28V12.34A1.83,1.83,0,0,1,119.6,11,1.89,1.89,0,0,1,120.08,12.34Z" transform="translate(-0.04)"/><path class="cls-1" d="M159.29,27.5a19.45,19.45,0,0,1-1.22,6.92A17.08,17.08,0,0,1,154.65,40a15.92,15.92,0,0,1-5.2,3.69,17,17,0,0,1-13.12,0,15.67,15.67,0,0,1-5.2-3.69,16.55,16.55,0,0,1-3.4-5.57,19.46,19.46,0,0,1-1.19-6.92,19.47,19.47,0,0,1,1.14-6.93,16.51,16.51,0,0,1,3.4-5.56,15.84,15.84,0,0,1,5.2-3.7,17.14,17.14,0,0,1,13.12,0,16,16,0,0,1,5.2,3.7,17.34,17.34,0,0,1,3.4,5.55A19.53,19.53,0,0,1,159.29,27.5Zm-4.23,0a15.44,15.44,0,0,0-1.56-7,12.05,12.05,0,0,0-4.29-4.83,11.66,11.66,0,0,0-6.35-1.75,11.46,11.46,0,0,0-6.29,1.75,12,12,0,0,0-4.3,4.81,15.43,15.43,0,0,0-1.55,7,15.43,15.43,0,0,0,1.55,7,12,12,0,0,0,4.3,4.84,11.45,11.45,0,0,0,6.29,1.74,11.56,11.56,0,0,0,6.35-1.74,11.92,11.92,0,0,0,4.24-4.75A15.43,15.43,0,0,0,155,27.5Z" transform="translate(-0.04)"/><path class="cls-1" d="M206.46,12.44a2.26,2.26,0,0,1-.15.73L196,43.24a1.67,1.67,0,0,1-.73.9,2.39,2.39,0,0,1-1.07.36,2,2,0,0,1-1.11-.31,1.74,1.74,0,0,1-.78-.95l-7.91-19-7.88,19a2,2,0,0,1-.85.95,1.86,1.86,0,0,1-2.14,0,1.54,1.54,0,0,1-.7-.9L162.49,13.17a2,2,0,0,1-.14-.73,1.8,1.8,0,0,1,.72-1.53,2.42,2.42,0,0,1,1.46-.56,2.23,2.23,0,0,1,1.12.34,1.84,1.84,0,0,1,.73,1l8.75,25.79,7.52-18.6a2.06,2.06,0,0,1,.73-.92,1.87,1.87,0,0,1,1.12-.34,2.11,2.11,0,0,1,1.14.34,1.83,1.83,0,0,1,.7.92l7.38,18.54,8.7-25.73a1.72,1.72,0,0,1,.73-1,2.39,2.39,0,0,1,1.22-.34,2.23,2.23,0,0,1,1.43.56A1.94,1.94,0,0,1,206.46,12.44Z" transform="translate(-0.04)"/></g><div xmlns="" id="divScriptsUsed" style="display: none"/><script xmlns="" id="globalVarsDetection" src="chrome-extension://cmkdbmfndkfgebldhnkbfhlneefdaaip/js/wrs_env.js"/></svg>