<svg xmlns="http://www.w3.org/2000/svg" id="Calque_1" data-name="Calque 1" viewBox="0 0 334.694 55.112"><g id="EB"><path d="M263.962,30.42a8.5,8.5,0,0,0-2.48-2.85,10.8,10.8,0,0,0-2.95-1.45,5.326,5.326,0,0,0,.83-.4,7.2,7.2,0,0,0,2.86-2.83,8.313,8.313,0,0,0,1-3.94,8.285,8.285,0,0,0-2.26-6.24c-1.54-1.48-3.75-2.21-6.63-2.21h-12.69a2,2,0,0,0-2,2v30a2,2,0,0,0,2,2h12.73a15.256,15.256,0,0,0,3.81-.48,9.833,9.833,0,0,0,3.4-1.6,8,8,0,0,0,2.45-3,10.531,10.531,0,0,0,.93-4.66A8.99,8.99,0,0,0,263.962,30.42Zm-20.09-16.08h9.87a5.4,5.4,0,0,1,3.86,1.33,5.077,5.077,0,0,1,1.36,3.82,5,5,0,0,1-5.2,5.39h-9.91Zm15,24.92a7.2,7.2,0,0,1-4.62,1.46h-10.4V28.81h10.21a10.137,10.137,0,0,1,3.18.51,5.26,5.26,0,0,1,2.5,1.78,6,6,0,0,1,1,3.64,5.481,5.481,0,0,1-1.78,4.52Z" transform="translate(0)" fill="#fff"/><path d="M231.192,14.19h-16a1.84,1.84,0,0,1-.28-3.67h16.28a1.84,1.84,0,0,1,.27,3.67Z" transform="translate(0)" fill="#fff"/><path d="M231.192,28.85h-16a1.83,1.83,0,1,1,0-3.66h16a1.83,1.83,0,1,1,0,3.66Z" transform="translate(0)" fill="#fff"/><path d="M231.192,44.44h-16a1.84,1.84,0,0,1-.28-3.67h16.28a1.84,1.84,0,0,1,.27,3.67A1.219,1.219,0,0,1,231.192,44.44Z" transform="translate(0)" fill="#fff"/></g><g id="SNOW"><path id="Tracé_1489" data-name="Tracé 1489" d="M25.522,6.16a3.08,3.08,0,0,0-3.08,3.08v4.6l-5.77-2.73a2.05,2.05,0,0,0-1.71,3.71l7.54,3.57V22l-11-6.36A3.1,3.1,0,1,0,8.382,21h0l11.33,6.5L16.4,29.42,9.28,24.55a2.07,2.07,0,0,0-2.32,3.39h0l5.5,3.76L8.34,34.07a3.08,3.08,0,0,0,3,5.37h0l4-2.31.62,6.35a2,2,0,0,0,2,1.88h.17a2.06,2.06,0,0,0,1.83-2.21h0l-.67-8.31L22.452,33V45.77a3.08,3.08,0,0,0,6.15.35,2.045,2.045,0,0,0,0-.35V32.63l3.36,1.92-.66,8.59a2.06,2.06,0,0,0,1.89,2.2h.16a2,2,0,0,0,2-1.89l.51-6.64,4.1,2.38a3.082,3.082,0,1,0,3.08-5.34l-4-2.3,5.26-3.63a2.06,2.06,0,0,0-2.093-3.549h0l-.023.014a1.9,1.9,0,0,0-.224.155h0L35.1,29.28l-3.14-1.79,11-6.37a3.08,3.08,0,0,0-3-5.33l-11.3,6.57V18.53l7.77-3.72a2.053,2.053,0,0,0-1.74-3.72h0l-6,2.87V9.23a3.06,3.06,0,0,0-3.05-3.07h0m0-6.16a9.231,9.231,0,0,1,8.17,5,8.189,8.189,0,0,1,9.15,4.38,9.231,9.231,0,0,1,7.8,10.466h0a9.55,9.55,0,0,1-.21,1.06c-.1.34-.21.68-.34,1a8.211,8.211,0,0,1-.76,9.77,9.24,9.24,0,0,1-7.83,14.13h-.37a8.272,8.272,0,0,1-7.83,5.75h-.54a9.228,9.228,0,0,1-12.95,1.607h0l-.046-.036h0a9.93,9.93,0,0,1-1.52-1.52h-.4A8.257,8.257,0,0,1,10.212,46h-.25a9.241,9.241,0,0,1-7.8-14.18,8.209,8.209,0,0,1-.78-10.11c-.13-.33-.24-.66-.34-1a9.213,9.213,0,0,1,.92-7,9.311,9.311,0,0,1,6.57-4.58,8.25,8.25,0,0,1,7.26-4.38,8.381,8.381,0,0,1,1.58.15A9.269,9.269,0,0,1,25.522,0Z" transform="translate(0)" fill="#fff"/><path d="M75.1,45a17.211,17.211,0,0,1-6.31-1.07,16.393,16.393,0,0,1-5.25-3.35,2.1,2.1,0,0,1-.56-.73,2,2,0,0,1,.34-2.3,1.78,1.78,0,0,1,1.38-.61,1.75,1.75,0,0,1,1.22.53,13.653,13.653,0,0,0,4.1,2.82,12.274,12.274,0,0,0,5,1,10.013,10.013,0,0,0,3.82-.71,6.631,6.631,0,0,0,2.72-1.89,4.265,4.265,0,0,0,1-2.82,4.73,4.73,0,0,0-1.07-3.29,8.372,8.372,0,0,0-3-2.09A30.053,30.053,0,0,0,74.042,29a29.2,29.2,0,0,1-4.08-1.26,12.11,12.11,0,0,1-3.26-1.9,7.631,7.631,0,0,1-2.14-2.77,9,9,0,0,1-.75-3.86,8.16,8.16,0,0,1,1.46-4.8,9.65,9.65,0,0,1,4.06-3.23,14.529,14.529,0,0,1,6-1.17,16.6,16.6,0,0,1,5.63.99,11,11,0,0,1,4.25,2.68,2.679,2.679,0,0,1,1,1.84,1.821,1.821,0,0,1-.61,1.29,1.859,1.859,0,0,1-1.38.61,1.521,1.521,0,0,1-1-.34,8.774,8.774,0,0,0-2.12-1.66,13.6,13.6,0,0,0-2.81-1.19,10.473,10.473,0,0,0-3-.44,11,11,0,0,0-3.94.66,6.171,6.171,0,0,0-2.65,1.82,4.309,4.309,0,0,0-.94,2.82,4.3,4.3,0,0,0,1.07,3,7.73,7.73,0,0,0,2.86,2,29.768,29.768,0,0,0,4,1.33,42,42,0,0,1,4.39,1.34,13.624,13.624,0,0,1,3.48,1.87,7.6,7.6,0,0,1,2.25,2.84,10.149,10.149,0,0,1,.81,4.25,8.111,8.111,0,0,1-1.51,4.76,10.261,10.261,0,0,1-4.15,3.32A13.606,13.606,0,0,1,75.1,45Z" transform="translate(0)" fill="#fff"/><path d="M120.042,12.34V42.46a1.942,1.942,0,0,1-1.785,2.087h0a2.6,2.6,0,0,1-1.082-.167,1.381,1.381,0,0,1-.68-.46L96.672,17.66V42.71a1.734,1.734,0,0,1-.51,1.29,1.809,1.809,0,0,1-1.34.51,1.692,1.692,0,0,1-1.31-.51,1.741,1.741,0,0,1-.48-1.28V12.49a1.859,1.859,0,0,1,.58-1.49,2,2,0,0,1,1.35-.5,2.518,2.518,0,0,1,.9.17,1.342,1.342,0,0,1,.7.56l19.87,26.28V12.34a1.83,1.83,0,0,1,3.13-1.34A1.887,1.887,0,0,1,120.042,12.34Z" transform="translate(0)" fill="#fff"/><path d="M159.252,27.5a19.452,19.452,0,0,1-1.22,6.92,17.085,17.085,0,0,1-3.42,5.58,15.932,15.932,0,0,1-5.2,3.69,17,17,0,0,1-13.12,0,15.679,15.679,0,0,1-5.2-3.69,16.533,16.533,0,0,1-3.4-5.57,19.461,19.461,0,0,1-1.19-6.92,19.474,19.474,0,0,1,1.14-6.93,16.522,16.522,0,0,1,3.4-5.56,15.86,15.86,0,0,1,5.2-3.7,17.14,17.14,0,0,1,13.12,0,16.005,16.005,0,0,1,5.2,3.7,17.353,17.353,0,0,1,3.4,5.55A19.524,19.524,0,0,1,159.252,27.5Zm-4.23,0a15.44,15.44,0,0,0-1.56-7,12.058,12.058,0,0,0-4.29-4.83,11.666,11.666,0,0,0-6.35-1.75,11.459,11.459,0,0,0-6.29,1.75,12,12,0,0,0-4.3,4.81,15.431,15.431,0,0,0-1.55,7,15.431,15.431,0,0,0,1.55,7,12,12,0,0,0,4.3,4.84,12.348,12.348,0,0,0,12.64,0,11.929,11.929,0,0,0,4.24-4.75,15.431,15.431,0,0,0,1.55-7.07Z" transform="translate(0)" fill="#fff"/><path d="M206.422,12.44a2.252,2.252,0,0,1-.15.73l-10.31,30.07a1.667,1.667,0,0,1-.73.9,2.391,2.391,0,0,1-1.07.36,2,2,0,0,1-1.11-.31,1.74,1.74,0,0,1-.78-.95l-7.91-19-7.88,19a2,2,0,0,1-.85.95,1.862,1.862,0,0,1-2.14,0,1.535,1.535,0,0,1-.7-.9l-10.34-30.12a2,2,0,0,1-.14-.73,1.8,1.8,0,0,1,.72-1.53,2.421,2.421,0,0,1,1.46-.56,2.233,2.233,0,0,1,1.12.34,1.834,1.834,0,0,1,.73,1l8.75,25.79,7.52-18.6a2.062,2.062,0,0,1,.73-.92,1.874,1.874,0,0,1,1.12-.34,2.116,2.116,0,0,1,1.14.34,1.83,1.83,0,0,1,.7.92l7.38,18.54,8.7-25.73a1.722,1.722,0,0,1,.73-1,2.394,2.394,0,0,1,1.22-.34,2.227,2.227,0,0,1,1.43.56A1.942,1.942,0,0,1,206.422,12.44Z" transform="translate(0)" fill="#fff"/></g><path d="M284.192,9.37h39.556a10.946,10.946,0,0,1,10.946,10.945h0A10.946,10.946,0,0,1,323.748,31.26H284.192a10.946,10.946,0,0,1-10.946-10.945h0A10.946,10.946,0,0,1,284.192,9.37Z" transform="translate(0)" fill="#46c39e"/><path d="M290.331,18.4a4.806,4.806,0,0,1-1.6-.393,1.171,1.171,0,0,1-.493-.389.953.953,0,0,1-.128-.508.638.638,0,0,1,.311-.578A2.813,2.813,0,0,1,290,16.174a2.421,2.421,0,0,1,.862.138,1.939,1.939,0,0,1,.589.343,1.905,1.905,0,0,1,.423.53,1.814,1.814,0,0,0,1.03.822,1.764,1.764,0,0,0,1.47-.142,1.641,1.641,0,0,0,.782-1.227,1.93,1.93,0,0,0-.3-1.246,5.838,5.838,0,0,0-1.156-1.364,5.206,5.206,0,0,0-1.617-.952,5.7,5.7,0,0,0-2.035-.338,7.23,7.23,0,0,0-2.643.455,4.687,4.687,0,0,0-2.051,1.48,3.852,3.852,0,0,0-.791,2.42,4.084,4.084,0,0,0,1.531,3.232,6.6,6.6,0,0,0,3.735,1.414,2.742,2.742,0,0,1,1.623.612,1.257,1.257,0,0,1,.387.931.85.85,0,0,1-.175.545,1.575,1.575,0,0,1-.66.465,2.893,2.893,0,0,1-1.142.2,3.91,3.91,0,0,1-1.072-.168,2.722,2.722,0,0,1-.822-.423,1.2,1.2,0,0,1-.358-.411,1.858,1.858,0,0,0-.829-.875,1.685,1.685,0,0,0-1.175-.189,1.782,1.782,0,0,0-1.251.845,1.562,1.562,0,0,0-.046,1.5,4.851,4.851,0,0,0,1.3,1.689,5.984,5.984,0,0,0,1.944,1.086,6.981,6.981,0,0,0,2.266.376h.045a7.407,7.407,0,0,0,1.974-.274,5.569,5.569,0,0,0,1.766-.862,4.586,4.586,0,0,0,.353-6.941A6.3,6.3,0,0,0,290.331,18.4Z" transform="translate(0)" fill="#090d49"/><path d="M308.494,12.865a1.671,1.671,0,0,0-1.669,1.154L303.5,21.89l-3.285-7.875a1.731,1.731,0,0,0-1.623-1.143h-.022a1.7,1.7,0,0,0-1.541.833l-.057.118a1.949,1.949,0,0,0,.049,1.636l4.833,11.12a1.724,1.724,0,0,0,1.642,1.182h.03a1.705,1.705,0,0,0,1-.34,1.92,1.92,0,0,0,.609-.772L310.005,15.4a1.855,1.855,0,0,0,0-1.693A1.676,1.676,0,0,0,308.494,12.865Z" transform="translate(0)" fill="#090d49"/><path d="M323.791,20.939l0-.14a1.732,1.732,0,0,0-1.773-1.635h-3.081a1.839,1.839,0,0,0-1.282.463l-.123.124a1.661,1.661,0,0,0,.149,2.355,1.8,1.8,0,0,0,1.221.443h1.378v1.481a4.9,4.9,0,0,1-.481.214,3.686,3.686,0,0,1-2.776-.084,3.819,3.819,0,0,1-1.227-.872,4.2,4.2,0,0,1-.846-1.335,4.345,4.345,0,0,1-.312-1.644,4.243,4.243,0,0,1,1.157-2.939,4.01,4.01,0,0,1,1.242-.9,3.471,3.471,0,0,1,1.48-.32h.018a3.467,3.467,0,0,1,1.324.2,3.754,3.754,0,0,1,1.043.658,1.76,1.76,0,0,0,1.18.434,1.722,1.722,0,0,0,1.1-.41,1.582,1.582,0,0,0,.548-1.013,2.477,2.477,0,0,0,.053-.364,1.5,1.5,0,0,0-.151-.728,1.606,1.606,0,0,0-.457-.558,6.707,6.707,0,0,0-4.66-1.657,7.094,7.094,0,0,0-2.922.6,7.354,7.354,0,0,0-2.344,1.644,7.508,7.508,0,0,0-1.569,2.425,7.959,7.959,0,0,0,1.574,8.323,7.156,7.156,0,0,0,5.2,2.22,8.479,8.479,0,0,0,2.522-.407,6.6,6.6,0,0,0,2.193-1.255,1.592,1.592,0,0,0,.521-.721,1.8,1.8,0,0,0,.1-.561l0-.054,0,0Z" transform="translate(0)" fill="#090d49"/></svg>