<svg xmlns="http://www.w3.org/2000/svg" id="Calque_1" data-name="Calque 1" viewBox="0 0 334.694 55.112"><g id="EB"><path d="M263.962,30.42a8.5,8.5,0,0,0-2.48-2.85,10.8,10.8,0,0,0-2.95-1.45,5.326,5.326,0,0,0,.83-.4,7.2,7.2,0,0,0,2.86-2.83,8.313,8.313,0,0,0,1-3.94,8.285,8.285,0,0,0-2.26-6.24c-1.54-1.48-3.75-2.21-6.63-2.21h-12.69a2,2,0,0,0-2,2v30a2,2,0,0,0,2,2h12.73a15.256,15.256,0,0,0,3.81-.48,9.833,9.833,0,0,0,3.4-1.6,8,8,0,0,0,2.45-3,10.531,10.531,0,0,0,.93-4.66A8.99,8.99,0,0,0,263.962,30.42Zm-20.09-16.08h9.87a5.4,5.4,0,0,1,3.86,1.33,5.077,5.077,0,0,1,1.36,3.82,5,5,0,0,1-5.2,5.39h-9.91Zm15,24.92a7.2,7.2,0,0,1-4.62,1.46h-10.4V28.81h10.21a10.137,10.137,0,0,1,3.18.51,5.26,5.26,0,0,1,2.5,1.78,6,6,0,0,1,1,3.64,5.481,5.481,0,0,1-1.78,4.52Z" transform="translate(0)" fill="#0d146d"/><path d="M231.192,14.19h-16a1.84,1.84,0,0,1-.28-3.67h16.28a1.84,1.84,0,0,1,.27,3.67Z" transform="translate(0)" fill="#0d146d"/><path d="M231.192,28.85h-16a1.83,1.83,0,1,1,0-3.66h16a1.83,1.83,0,1,1,0,3.66Z" transform="translate(0)" fill="#0d146d"/><path d="M231.192,44.44h-16a1.84,1.84,0,0,1-.28-3.67h16.28a1.84,1.84,0,0,1,.27,3.67A1.219,1.219,0,0,1,231.192,44.44Z" transform="translate(0)" fill="#0d146d"/></g><g id="SNOW"><path id="Tracé_1489" data-name="Tracé 1489" d="M25.522,6.16a3.08,3.08,0,0,0-3.08,3.08v4.6l-5.77-2.73a2.05,2.05,0,0,0-1.71,3.71l7.54,3.57V22l-11-6.36A3.1,3.1,0,1,0,8.382,21h0l11.33,6.5L16.4,29.42,9.28,24.55a2.07,2.07,0,0,0-2.32,3.39h0l5.5,3.76L8.34,34.07a3.08,3.08,0,0,0,3,5.37h0l4-2.31.62,6.35a2,2,0,0,0,2,1.88h.17a2.06,2.06,0,0,0,1.83-2.21h0l-.67-8.31L22.452,33V45.77a3.08,3.08,0,0,0,6.15.35,2.045,2.045,0,0,0,0-.35V32.63l3.36,1.92-.66,8.59a2.06,2.06,0,0,0,1.89,2.2h.16a2,2,0,0,0,2-1.89l.51-6.64,4.1,2.38a3.082,3.082,0,1,0,3.08-5.34l-4-2.3,5.26-3.63a2.06,2.06,0,0,0-2.093-3.549h0l-.023.014a1.9,1.9,0,0,0-.224.155h0L35.1,29.28l-3.14-1.79,11-6.37a3.08,3.08,0,0,0-3-5.33l-11.3,6.57V18.53l7.77-3.72a2.053,2.053,0,0,0-1.74-3.72h0l-6,2.87V9.23a3.06,3.06,0,0,0-3.05-3.07h0m0-6.16a9.231,9.231,0,0,1,8.17,5,8.189,8.189,0,0,1,9.15,4.38,9.231,9.231,0,0,1,7.8,10.466h0a9.55,9.55,0,0,1-.21,1.06c-.1.34-.21.68-.34,1a8.211,8.211,0,0,1-.76,9.77,9.24,9.24,0,0,1-7.83,14.13h-.37a8.272,8.272,0,0,1-7.83,5.75h-.54a9.228,9.228,0,0,1-12.95,1.607h0l-.046-.036h0a9.93,9.93,0,0,1-1.52-1.52h-.4A8.257,8.257,0,0,1,10.212,46h-.25a9.241,9.241,0,0,1-7.8-14.18,8.209,8.209,0,0,1-.78-10.11c-.13-.33-.24-.66-.34-1a9.213,9.213,0,0,1,.92-7,9.311,9.311,0,0,1,6.57-4.58,8.25,8.25,0,0,1,7.26-4.38,8.381,8.381,0,0,1,1.58.15A9.269,9.269,0,0,1,25.522,0Z" transform="translate(0)" fill="#0d146d"/><path d="M75.1,45a17.211,17.211,0,0,1-6.31-1.07,16.393,16.393,0,0,1-5.25-3.35,2.1,2.1,0,0,1-.56-.73,2,2,0,0,1,.34-2.3,1.78,1.78,0,0,1,1.38-.61,1.75,1.75,0,0,1,1.22.53,13.653,13.653,0,0,0,4.1,2.82,12.274,12.274,0,0,0,5,1,10.013,10.013,0,0,0,3.82-.71,6.631,6.631,0,0,0,2.72-1.89,4.265,4.265,0,0,0,1-2.82,4.73,4.73,0,0,0-1.07-3.29,8.372,8.372,0,0,0-3-2.09A30.053,30.053,0,0,0,74.042,29a29.2,29.2,0,0,1-4.08-1.26,12.11,12.11,0,0,1-3.26-1.9,7.631,7.631,0,0,1-2.14-2.77,9,9,0,0,1-.75-3.86,8.16,8.16,0,0,1,1.46-4.8,9.65,9.65,0,0,1,4.06-3.23,14.529,14.529,0,0,1,6-1.17,16.6,16.6,0,0,1,5.63.99,11,11,0,0,1,4.25,2.68,2.679,2.679,0,0,1,1,1.84,1.821,1.821,0,0,1-.61,1.29,1.859,1.859,0,0,1-1.38.61,1.521,1.521,0,0,1-1-.34,8.774,8.774,0,0,0-2.12-1.66,13.6,13.6,0,0,0-2.81-1.19,10.473,10.473,0,0,0-3-.44,11,11,0,0,0-3.94.66,6.171,6.171,0,0,0-2.65,1.82,4.309,4.309,0,0,0-.94,2.82,4.3,4.3,0,0,0,1.07,3,7.73,7.73,0,0,0,2.86,2,29.768,29.768,0,0,0,4,1.33,42,42,0,0,1,4.39,1.34,13.624,13.624,0,0,1,3.48,1.87,7.6,7.6,0,0,1,2.25,2.84,10.149,10.149,0,0,1,.81,4.25,8.111,8.111,0,0,1-1.51,4.76,10.261,10.261,0,0,1-4.15,3.32A13.606,13.606,0,0,1,75.1,45Z" transform="translate(0)" fill="#0d146d"/><path d="M120.042,12.34V42.46a1.942,1.942,0,0,1-1.785,2.087h0a2.6,2.6,0,0,1-1.082-.167,1.381,1.381,0,0,1-.68-.46L96.672,17.66V42.71a1.734,1.734,0,0,1-.51,1.29,1.809,1.809,0,0,1-1.34.51,1.692,1.692,0,0,1-1.31-.51,1.741,1.741,0,0,1-.48-1.28V12.49a1.859,1.859,0,0,1,.58-1.49,2,2,0,0,1,1.35-.5,2.518,2.518,0,0,1,.9.17,1.342,1.342,0,0,1,.7.56l19.87,26.28V12.34a1.83,1.83,0,0,1,3.13-1.34A1.887,1.887,0,0,1,120.042,12.34Z" transform="translate(0)" fill="#0d146d"/><path d="M159.252,27.5a19.452,19.452,0,0,1-1.22,6.92,17.085,17.085,0,0,1-3.42,5.58,15.932,15.932,0,0,1-5.2,3.69,17,17,0,0,1-13.12,0,15.679,15.679,0,0,1-5.2-3.69,16.533,16.533,0,0,1-3.4-5.57,19.461,19.461,0,0,1-1.19-6.92,19.474,19.474,0,0,1,1.14-6.93,16.522,16.522,0,0,1,3.4-5.56,15.86,15.86,0,0,1,5.2-3.7,17.14,17.14,0,0,1,13.12,0,16.005,16.005,0,0,1,5.2,3.7,17.353,17.353,0,0,1,3.4,5.55A19.524,19.524,0,0,1,159.252,27.5Zm-4.23,0a15.44,15.44,0,0,0-1.56-7,12.058,12.058,0,0,0-4.29-4.83,11.666,11.666,0,0,0-6.35-1.75,11.459,11.459,0,0,0-6.29,1.75,12,12,0,0,0-4.3,4.81,15.431,15.431,0,0,0-1.55,7,15.431,15.431,0,0,0,1.55,7,12,12,0,0,0,4.3,4.84,12.348,12.348,0,0,0,12.64,0,11.929,11.929,0,0,0,4.24-4.75,15.431,15.431,0,0,0,1.55-7.07Z" transform="translate(0)" fill="#0d146d"/><path d="M206.422,12.44a2.252,2.252,0,0,1-.15.73l-10.31,30.07a1.667,1.667,0,0,1-.73.9,2.391,2.391,0,0,1-1.07.36,2,2,0,0,1-1.11-.31,1.74,1.74,0,0,1-.78-.95l-7.91-19-7.88,19a2,2,0,0,1-.85.95,1.862,1.862,0,0,1-2.14,0,1.535,1.535,0,0,1-.7-.9l-10.34-30.12a2,2,0,0,1-.14-.73,1.8,1.8,0,0,1,.72-1.53,2.421,2.421,0,0,1,1.46-.56,2.233,2.233,0,0,1,1.12.34,1.834,1.834,0,0,1,.73,1l8.75,25.79,7.52-18.6a2.062,2.062,0,0,1,.73-.92,1.874,1.874,0,0,1,1.12-.34,2.116,2.116,0,0,1,1.14.34,1.83,1.83,0,0,1,.7.92l7.38,18.54,8.7-25.73a1.722,1.722,0,0,1,.73-1,2.394,2.394,0,0,1,1.22-.34,2.227,2.227,0,0,1,1.43.56A1.942,1.942,0,0,1,206.422,12.44Z" transform="translate(0)" fill="#0d146d"/></g><path d="M284.192,9.37h39.556a10.946,10.946,0,0,1,10.946,10.945h0A10.946,10.946,0,0,1,323.748,31.26H284.192a10.946,10.946,0,0,1-10.946-10.945h0A10.946,10.946,0,0,1,284.192,9.37Z" transform="translate(0)" fill="#46c39e"/><path d="M289.869,26.926a6.022,6.022,0,0,1-1.987-.322,5.017,5.017,0,0,1-1.626-.907,3.849,3.849,0,0,1-1.039-1.344.6.6,0,0,1,.008-.585.767.767,0,0,1,.536-.355.747.747,0,0,1,.536.075.887.887,0,0,1,.407.42,2.215,2.215,0,0,0,.676.8,3.735,3.735,0,0,0,1.113.569,4.372,4.372,0,0,0,1.376.214,4.026,4.026,0,0,0,1.493-.264,2.564,2.564,0,0,0,1.072-.759,1.857,1.857,0,0,0,.406-1.219,2.229,2.229,0,0,0-.7-1.626,3.753,3.753,0,0,0-2.268-.883,5.626,5.626,0,0,1-3.157-1.2,3.1,3.1,0,0,1-1.15-2.438,2.868,2.868,0,0,1,.586-1.822,3.665,3.665,0,0,1,1.6-1.147,6.247,6.247,0,0,1,2.284-.395,4.832,4.832,0,0,1,1.714.28,4.247,4.247,0,0,1,1.3.767,4.862,4.862,0,0,1,.957,1.13.957.957,0,0,1,.156.626.625.625,0,0,1-.3.465.755.755,0,0,1-.626.058.859.859,0,0,1-.5-.388,2.861,2.861,0,0,0-.627-.775,2.976,2.976,0,0,0-.9-.527,3.447,3.447,0,0,0-1.228-.2,3.759,3.759,0,0,0-2.053.487,1.641,1.641,0,0,0-.816,1.492,1.884,1.884,0,0,0,.272.981,2.192,2.192,0,0,0,.957.791,5.8,5.8,0,0,0,1.921.471,5.253,5.253,0,0,1,3.058,1.219,3.365,3.365,0,0,1,1.064,2.589,3.432,3.432,0,0,1-.363,1.617,3.378,3.378,0,0,1-1,1.161,4.6,4.6,0,0,1-1.452.709A6.036,6.036,0,0,1,289.869,26.926Z" transform="translate(0)" fill="#fff" stroke="#fff" stroke-miterlimit="10" stroke-width="2"/><path d="M303.513,26.761a.731.731,0,0,1-.709-.5l-4.865-11.2a1.011,1.011,0,0,1-.042-.858.669.669,0,0,1,.652-.33.722.722,0,0,1,.725.478l4.337,10.4h-.232l4.387-10.39a.678.678,0,0,1,.725-.494.652.652,0,0,1,.636.33.822.822,0,0,1-.009.742l-4.9,11.313a.925.925,0,0,1-.291.37A.7.7,0,0,1,303.513,26.761Z" transform="translate(0)" fill="#fff" stroke="#fff" stroke-miterlimit="10" stroke-width="2"/><path d="M318.508,26.926a6.241,6.241,0,0,1-2.5-.5,6.162,6.162,0,0,1-2.028-1.41,6.918,6.918,0,0,1-1.369-7.264,6.545,6.545,0,0,1,1.36-2.1A6.4,6.4,0,0,1,316,14.228a6.108,6.108,0,0,1,2.507-.511,5.774,5.774,0,0,1,4.04,1.435.594.594,0,0,1,.19.223.49.49,0,0,1,.049.238,1.477,1.477,0,0,1-.042.248.578.578,0,0,1-.205.412.722.722,0,0,1-.465.174.779.779,0,0,1-.519-.19,4.729,4.729,0,0,0-1.312-.824,4.617,4.617,0,0,0-1.742-.281,4.412,4.412,0,0,0-1.888.412,5.071,5.071,0,0,0-1.55,1.122,5.263,5.263,0,0,0-1.427,3.628,5.327,5.327,0,0,0,.384,2.011,5.2,5.2,0,0,0,1.045,1.649,4.816,4.816,0,0,0,1.55,1.1,4.706,4.706,0,0,0,3.529.109,6,6,0,0,0,1.476-.816.754.754,0,0,1,.527-.174.725.725,0,0,1,.454.214.7.7,0,0,1,.189.52.929.929,0,0,1-.049.3.563.563,0,0,1-.2.257,5.626,5.626,0,0,1-1.888,1.088A6.718,6.718,0,0,1,318.508,26.926Zm4.287-2-1.517-.3V21.55H318.9a.825.825,0,0,1-.568-.2.661.661,0,0,1-.055-.933h0a.675.675,0,0,1,.054-.053.825.825,0,0,1,.568-.2h3.117a.736.736,0,0,1,.775.693v.082Z" transform="translate(0)" fill="#fff" stroke="#fff" stroke-linecap="square" stroke-linejoin="bevel" stroke-width="2"/></svg>